<svg width="1024" height="1024" viewBox="0 0 1024 1024" fill="none" xmlns="http://www.w3.org/2000/svg">
<g clip-path="url(#clip0)">
<g filter="url(#filter0_dii)">
<path fill-rule="evenodd" clip-rule="evenodd" d="M924 357.627C924 347.845 924.004 338.062 923.944 328.279C923.895 320.038 923.8 311.799 923.576 303.562C923.092 285.609 922.033 267.502 918.84 249.749C915.602 231.741 910.314 214.98 901.981 198.617C893.789 182.534 883.088 167.817 870.32 155.058C857.555 142.299 842.834 131.605 826.746 123.418C810.366 115.083 793.587 109.797 775.558 106.56C757.803 103.372 739.691 102.315 721.738 101.83C713.495 101.607 705.253 101.513 697.008 101.462C687.22 101.402 677.432 101.407 667.644 101.407L553.997 101H468.997L357.361 101.407C347.554 101.407 337.747 101.402 327.94 101.462C319.678 101.513 311.42 101.607 303.161 101.83C285.167 102.315 267.014 103.373 249.217 106.565C231.164 109.801 214.36 115.085 197.958 123.414C181.835 131.602 167.083 142.297 154.291 155.058C141.501 167.816 130.78 182.53 122.573 198.61C114.217 214.981 108.919 231.752 105.673 249.77C102.477 267.516 101.418 285.617 100.931 303.562C100.709 311.8 100.613 320.039 100.563 328.279C100.503 338.063 100 350.216 100 359.999L100.003 470.089L100 555.998L100.508 668.427C100.508 678.223 100.504 688.019 100.563 697.815C100.613 706.067 100.709 714.317 100.932 722.566C101.418 740.542 102.479 758.675 105.678 776.452C108.923 794.484 114.22 811.269 122.569 827.653C130.777 843.759 141.5 858.495 154.291 871.272C167.082 884.049 181.83 894.757 197.95 902.956C214.362 911.302 231.174 916.595 249.238 919.836C267.027 923.029 285.174 924.088 303.161 924.573C311.42 924.796 319.679 924.891 327.941 924.941C337.748 925.001 347.554 924.997 357.361 924.997L470.006 925H555.217L667.644 924.996C677.432 924.996 687.22 925.001 697.008 924.941C705.253 924.891 713.495 924.796 721.738 924.573C739.698 924.087 757.816 923.027 775.579 919.832C793.597 916.591 810.368 911.3 826.739 902.959C842.831 894.761 857.554 884.051 870.32 871.272C883.086 858.497 893.786 843.763 901.978 827.66C910.316 811.268 915.604 794.475 918.844 776.431C922.034 758.661 923.092 740.535 923.577 722.566C923.8 714.316 923.895 706.066 923.944 697.815C924.005 688.019 924 678.223 924 668.427C924 668.427 923.994 557.983 923.994 555.998V469.999C923.994 468.533 924 357.627 924 357.627Z" fill="url(#paint0_linear)"/>
<path fill-rule="evenodd" clip-rule="evenodd" d="M924 357.627C924 347.845 924.004 338.062 923.944 328.279C923.895 320.038 923.8 311.799 923.576 303.562C923.092 285.609 922.033 267.502 918.84 249.749C915.602 231.741 910.314 214.98 901.981 198.617C893.789 182.534 883.088 167.817 870.32 155.058C857.555 142.299 842.834 131.605 826.746 123.418C810.366 115.083 793.587 109.797 775.558 106.56C757.803 103.372 739.691 102.315 721.738 101.83C713.495 101.607 705.253 101.513 697.008 101.462C687.22 101.402 677.432 101.407 667.644 101.407L553.997 101H468.997L357.361 101.407C347.554 101.407 337.747 101.402 327.94 101.462C319.678 101.513 311.42 101.607 303.161 101.83C285.167 102.315 267.014 103.373 249.217 106.565C231.164 109.801 214.36 115.085 197.958 123.414C181.835 131.602 167.083 142.297 154.291 155.058C141.501 167.816 130.78 182.53 122.573 198.61C114.217 214.981 108.919 231.752 105.673 249.77C102.477 267.516 101.418 285.617 100.931 303.562C100.709 311.8 100.613 320.039 100.563 328.279C100.503 338.063 100 350.216 100 359.999L100.003 470.089L100 555.998L100.508 668.427C100.508 678.223 100.504 688.019 100.563 697.815C100.613 706.067 100.709 714.317 100.932 722.566C101.418 740.542 102.479 758.675 105.678 776.452C108.923 794.484 114.22 811.269 122.569 827.653C130.777 843.759 141.5 858.495 154.291 871.272C167.082 884.049 181.83 894.757 197.95 902.956C214.362 911.302 231.174 916.595 249.238 919.836C267.027 923.029 285.174 924.088 303.161 924.573C311.42 924.796 319.679 924.891 327.941 924.941C337.748 925.001 347.554 924.997 357.361 924.997L470.006 925H555.217L667.644 924.996C677.432 924.996 687.22 925.001 697.008 924.941C705.253 924.891 713.495 924.796 721.738 924.573C739.698 924.087 757.816 923.027 775.579 919.832C793.597 916.591 810.368 911.3 826.739 902.959C842.831 894.761 857.554 884.051 870.32 871.272C883.086 858.497 893.786 843.763 901.978 827.66C910.316 811.268 915.604 794.475 918.844 776.431C922.034 758.661 923.092 740.535 923.577 722.566C923.8 714.316 923.895 706.066 923.944 697.815C924.005 688.019 924 678.223 924 668.427C924 668.427 923.994 557.983 923.994 555.998V469.999C923.994 468.533 924 357.627 924 357.627Z" fill="url(#paint1_radial)" fill-opacity="0.8"/>
<path fill-rule="evenodd" clip-rule="evenodd" d="M924 357.627C924 347.845 924.004 338.062 923.944 328.279C923.895 320.038 923.8 311.799 923.576 303.562C923.092 285.609 922.033 267.502 918.84 249.749C915.602 231.741 910.314 214.98 901.981 198.617C893.789 182.534 883.088 167.817 870.32 155.058C857.555 142.299 842.834 131.605 826.746 123.418C810.366 115.083 793.587 109.797 775.558 106.56C757.803 103.372 739.691 102.315 721.738 101.83C713.495 101.607 705.253 101.513 697.008 101.462C687.22 101.402 677.432 101.407 667.644 101.407L553.997 101H468.997L357.361 101.407C347.554 101.407 337.747 101.402 327.94 101.462C319.678 101.513 311.42 101.607 303.161 101.83C285.167 102.315 267.014 103.373 249.217 106.565C231.164 109.801 214.36 115.085 197.958 123.414C181.835 131.602 167.083 142.297 154.291 155.058C141.501 167.816 130.78 182.53 122.573 198.61C114.217 214.981 108.919 231.752 105.673 249.77C102.477 267.516 101.418 285.617 100.931 303.562C100.709 311.8 100.613 320.039 100.563 328.279C100.503 338.063 100 350.216 100 359.999L100.003 470.089L100 555.998L100.508 668.427C100.508 678.223 100.504 688.019 100.563 697.815C100.613 706.067 100.709 714.317 100.932 722.566C101.418 740.542 102.479 758.675 105.678 776.452C108.923 794.484 114.22 811.269 122.569 827.653C130.777 843.759 141.5 858.495 154.291 871.272C167.082 884.049 181.83 894.757 197.95 902.956C214.362 911.302 231.174 916.595 249.238 919.836C267.027 923.029 285.174 924.088 303.161 924.573C311.42 924.796 319.679 924.891 327.941 924.941C337.748 925.001 347.554 924.997 357.361 924.997L470.006 925H555.217L667.644 924.996C677.432 924.996 687.22 925.001 697.008 924.941C705.253 924.891 713.495 924.796 721.738 924.573C739.698 924.087 757.816 923.027 775.579 919.832C793.597 916.591 810.368 911.3 826.739 902.959C842.831 894.761 857.554 884.051 870.32 871.272C883.086 858.497 893.786 843.763 901.978 827.66C910.316 811.268 915.604 794.475 918.844 776.431C922.034 758.661 923.092 740.535 923.577 722.566C923.8 714.316 923.895 706.066 923.944 697.815C924.005 688.019 924 678.223 924 668.427C924 668.427 923.994 557.983 923.994 555.998V469.999C923.994 468.533 924 357.627 924 357.627Z" fill="url(#paint2_radial)" fill-opacity="0.8"/>
</g>
<path fill-rule="evenodd" clip-rule="evenodd" d="M425.778 811.128C531.531 851.923 733.175 820.588 748.355 754.369C775.718 635 378.218 771 386.718 654C391.05 594.372 539.249 560.741 658 536.5C607.108 507.53 427.05 448.701 440.548 406.133C456.506 355.805 611.332 376.063 684 364C722.268 357.647 768.667 327.499 756.035 277.561C747.729 244.726 702.272 208.707 621.925 223.365C590.143 229.164 512.199 264.104 484 280.5C491.5 282 491.5 282 491.5 282C587.21 257.168 636.5 262 634.838 277.561C621.925 325.725 379.695 287.295 331.446 355.805C278.514 430.965 483.913 508.07 525.623 520.832C400.964 526.153 217.575 572.553 249.718 684.5C293.218 836 630.592 715.5 625.718 764C622.05 800.5 493.718 826.736 425.778 811.128Z" fill="url(#paint3_linear)"/>
<path fill-rule="evenodd" clip-rule="evenodd" d="M413.701 795.756C519.41 836.525 720.968 805.21 736.141 739.033C763.493 619.739 366.162 755.653 374.658 638.727C378.769 582.148 536.451 556.307 651.5 532.5C645.197 522.778 651.5 532.5 645.197 522.778C594.326 493.826 414.973 433.558 428.465 391.016C444.416 340.719 600.905 359.347 673.543 347.292C711.795 340.943 756.445 312.431 743.818 262.525C735.516 229.71 690.078 193.714 609.765 208.363C565.311 216.472 477.481 271.071 477.481 271.071C480.947 276.5 480.947 276.5 483.5 280.5C535.016 270.282 628.456 240.957 622.672 262.524C609.765 310.658 367.638 272.252 319.41 340.719C266.5 415.832 471.812 492.889 513.504 505.643C388.898 510.961 205.587 557.331 237.716 669.208C281.198 820.613 618.428 700.188 613.556 748.658C609.89 785.135 481.613 811.354 413.701 795.756Z" fill="url(#paint4_linear)" fill-opacity="0.9"/>
<g filter="url(#filter1_i)">
<path fill-rule="evenodd" clip-rule="evenodd" d="M419.56 806.128C525.313 846.923 726.957 815.588 742.137 749.369C769.5 630 372 766 380.5 649C384.832 589.372 532.403 557.218 651.153 532.978C600.261 504.007 420.832 443.701 434.33 401.133C450.288 350.805 606.843 369.444 679.512 357.381C717.78 351.029 762.449 322.499 749.817 272.561C741.512 239.726 696.054 203.707 615.707 218.365C571.234 226.479 483.366 281.112 483.366 281.112C579.076 256.28 635.362 247.412 628.62 272.561C615.707 320.725 373.477 282.295 325.228 350.805C272.296 425.965 477.695 503.07 519.405 515.832C394.746 521.153 211.357 567.553 243.5 679.5C287 831 624.374 710.5 619.5 759C615.832 795.5 487.5 821.736 419.56 806.128Z" fill="url(#paint5_linear)"/>
</g>
</g>
<defs>
<filter id="filter0_dii" x="90" y="97" width="844" height="853" filterUnits="userSpaceOnUse" color-interpolation-filters="sRGB">
<feFlood flood-opacity="0" result="BackgroundImageFix"/>
<feColorMatrix in="SourceAlpha" type="matrix" values="0 0 0 0 0 0 0 0 0 0 0 0 0 0 0 0 0 0 127 0" result="hardAlpha"/>
<feOffset dy="15"/>
<feGaussianBlur stdDeviation="5"/>
<feColorMatrix type="matrix" values="0 0 0 0 0 0 0 0 0 0 0 0 0 0 0 0 0 0 0.25 0"/>
<feBlend mode="normal" in2="BackgroundImageFix" result="effect1_dropShadow"/>
<feBlend mode="normal" in="SourceGraphic" in2="effect1_dropShadow" result="shape"/>
<feColorMatrix in="SourceAlpha" type="matrix" values="0 0 0 0 0 0 0 0 0 0 0 0 0 0 0 0 0 0 127 0" result="hardAlpha"/>
<feOffset dy="-7"/>
<feGaussianBlur stdDeviation="2"/>
<feComposite in2="hardAlpha" operator="arithmetic" k2="-1" k3="1"/>
<feColorMatrix type="matrix" values="0 0 0 0 0.633058 0 0 0 0 0.517292 0 0 0 0 0.782708 0 0 0 0.62 0"/>
<feBlend mode="normal" in2="shape" result="effect2_innerShadow"/>
<feColorMatrix in="SourceAlpha" type="matrix" values="0 0 0 0 0 0 0 0 0 0 0 0 0 0 0 0 0 0 127 0" result="hardAlpha"/>
<feOffset dy="6"/>
<feGaussianBlur stdDeviation="2"/>
<feComposite in2="hardAlpha" operator="arithmetic" k2="-1" k3="1"/>
<feColorMatrix type="matrix" values="0 0 0 0 0.890812 0 0 0 0 0.886111 0 0 0 0 0.947222 0 0 0 0.4 0"/>
<feBlend mode="normal" in2="effect2_innerShadow" result="effect3_innerShadow"/>
</filter>
<filter id="filter1_i" x="239.782" y="215" width="512.218" height="613.383" filterUnits="userSpaceOnUse" color-interpolation-filters="sRGB">
<feFlood flood-opacity="0" result="BackgroundImageFix"/>
<feBlend mode="normal" in="SourceGraphic" in2="BackgroundImageFix" result="shape"/>
<feColorMatrix in="SourceAlpha" type="matrix" values="0 0 0 0 0 0 0 0 0 0 0 0 0 0 0 0 0 0 127 0" result="hardAlpha"/>
<feOffset dy="6"/>
<feGaussianBlur stdDeviation="2"/>
<feComposite in2="hardAlpha" operator="arithmetic" k2="-1" k3="1"/>
<feColorMatrix type="matrix" values="0 0 0 0 0 0 0 0 0 0 0 0 0 0 0 0 0 0 0.25 0"/>
<feBlend mode="normal" in2="shape" result="effect1_innerShadow"/>
</filter>
<linearGradient id="paint0_linear" x1="512" y1="144.5" x2="512" y2="925" gradientUnits="userSpaceOnUse">
<stop stop-color="#8381C5"/>
<stop offset="1" stop-color="#5350AF"/>
</linearGradient>
<radialGradient id="paint1_radial" cx="0" cy="0" r="1" gradientUnits="userSpaceOnUse" gradientTransform="translate(1006.5 231.5) rotate(146.242) scale(1401.87 2046.01)">
<stop stop-color="#F98A8A" stop-opacity="0.78"/>
<stop offset="0.359375" stop-color="#FA9696" stop-opacity="0.564375"/>
<stop offset="1" stop-color="white" stop-opacity="0"/>
</radialGradient>
<radialGradient id="paint2_radial" cx="0" cy="0" r="1" gradientUnits="userSpaceOnUse" gradientTransform="translate(512 -143) rotate(90) scale(1068)">
<stop stop-color="#AFADDA"/>
<stop offset="0.860487" stop-color="#7E55B3" stop-opacity="0.996078"/>
</radialGradient>
<linearGradient id="paint3_linear" x1="507.218" y1="220" x2="507.218" y2="833" gradientUnits="userSpaceOnUse">
<stop offset="0.00978793" stop-color="#F0EFF8" stop-opacity="0.28"/>
<stop offset="1" stop-color="#F0EFF8" stop-opacity="0.1"/>
</linearGradient>
<linearGradient id="paint4_linear" x1="495.107" y1="205" x2="495.107" y2="817.614" gradientUnits="userSpaceOnUse">
<stop stop-color="#5653B0"/>
<stop offset="1" stop-color="#5653B0" stop-opacity="0.21"/>
</linearGradient>
<linearGradient id="paint5_linear" x1="501" y1="215" x2="501" y2="828" gradientUnits="userSpaceOnUse">
<stop stop-color="#F0EFF8"/>
<stop offset="1" stop-color="#E3E2F2"/>
</linearGradient>
<clipPath id="clip0">
<rect width="844" height="844" fill="white" transform="translate(90 101)"/>
</clipPath>
</defs>
</svg>
