<?xml version="1.0" encoding="UTF-8" standalone="no"?>
<svg width="1024" height="1024" version="1.1"
   xmlns="http://www.w3.org/2000/svg">
  <defs>
    <linearGradient id="g1" x1="896" y1="128" x2="128" y2="896"
       gradientUnits="userSpaceOnUse">
      <stop style="stop-color:#9C84BC;" offset="0" />
      <stop style="stop-color:#795CAF;" offset="1" />
    </linearGradient>
  </defs>
  <path style="fill:url(#g1);stroke:none;"
     d="M 256,64 128,128 64,256 l 0,512 L 128,896 l 128,64 H 768
        L 896,896 960,768 V 256 L 896,128 768,64 Z" />
  <path style="fill:#645DAE;stroke:none;"
     d="M 448,256 320,320 384,384 448,448 H 384 l -64,64 -64,64 v 64
        l 64,64 h 256 l -64,64 128,0 64,-64 -30,-64 H 448 384 v -64
        l 64,-64 h 128 l 64,-64 -192,-64 L 448,320 h 256
        l 64,-128 -128,-64 -64,0 L 512,192 h 128 l -64,64 z" />
  <path style="fill:#FFFFFF;stroke:none;"
     d="M 448,320 320,384 384,448 448,512 H 384 l -64,64 -64,64 0,64 64,64
        h 256 l -64,64 128,0 64,-64 -30,-64 H 448 384 v -64 l 64,-64
        h 128 l 64,-64 -192,-64 L 448,384 h 256 l 64,-128 -128,-64 -64,0
        L 512,256 h 128 l -64,64 z" />
</svg>
